<svg width="72" height="77" viewBox="0 0 72 77" fill="none" xmlns="http://www.w3.org/2000/svg">
<rect x="0.5" y="0.5" width="71" height="56" stroke="#F0E5C2"/>
<circle cx="25.5" cy="16.5" r="7.5" fill="#F0E5C2"/>
<path d="M38.1914 1.69775L44.0465 0.387148L47.9963 18.0326C48.3582 19.6494 47.3409 21.2535 45.724 21.6154C44.1072 21.9773 42.5031 20.96 42.1412 19.3432L38.1914 1.69775Z" fill="#F0E5C2"/>
<path d="M41.814 16.7408C43.1054 15.5861 45.0885 15.6968 46.2433 16.9882C47.4703 18.3604 47.3526 20.4674 45.9804 21.6944L37.2238 29.5245L33.5025 25.3629C33.176 24.9977 33.2073 24.4369 33.5725 24.1104L41.814 16.7408Z" fill="#F0E5C2"/>
<path d="M22.8431 32.619C23.5425 31.1726 25.282 30.5669 26.7284 31.2663C28.2653 32.0093 28.9088 33.8575 28.1658 35.3944L17.7554 56.9266L12.3536 54.3149L22.8431 32.619Z" fill="#F0E5C2"/>
<path d="M38.5535 52.7424C37.6955 51.1202 38.315 49.1096 39.9372 48.2517C41.6608 47.34 43.7971 47.9983 44.7087 49.7219L50.3382 60.3655C51.2842 62.1542 50.6011 64.3711 48.8124 65.3172L48.5894 65.4352C47.1555 66.1936 45.3783 65.646 44.6199 64.2121L38.5535 52.7424Z" fill="#F0E5C2"/>
<path d="M44.8118 47.5698C43.2589 46.592 42.7927 44.5404 43.7704 42.9875C44.8093 41.3375 46.9891 40.8421 48.6391 41.881L58.0038 47.7774C59.609 48.7881 60.0909 50.9087 59.0802 52.5139L58.7757 52.9975C57.9379 54.3281 56.18 54.7276 54.8494 53.8898L44.8118 47.5698Z" fill="#F0E5C2"/>
<path d="M44.8511 63.8538C44.3811 62.1426 45.3872 60.3743 47.0985 59.9043C48.9167 59.4048 50.7955 60.4739 51.2949 62.2921L53.937 71.9106C54.3979 73.5884 53.4114 75.322 51.7337 75.7829L50.899 76.0121C49.5083 76.3942 48.0712 75.5764 47.6891 74.1857L44.8511 63.8538Z" fill="#F0E5C2"/>
<rect x="22.375" y="32.6758" width="15.1792" height="26.4192" rx="2" transform="rotate(-38.4273 22.375 32.6758)" fill="#F0E5C2"/>
</svg>
